REM DIRINDEX 1\6,1\2\7,1\2\8,1\2\9,1\3\10,1\3\11,1\4\12,1\4\13,1\4\14,1\5\15,1\5\16,1\5\17
REM DIRNAME folder01,folder02,folder03,folder04,folder05,folder06,folder07,folder08,folder09,folder10,folder11,folder12,folder13,folder14,folder15,folder16,folder17
TITLE ""
FILE "P2Q_t_0233-0250.mp3" MP3
  TRACK 01 AUDIO
    TITLE "10:cjc040_2115"
    INDEX 01 00:00:00
  TRACK 02 AUDIO
    TITLE "0:"
    INDEX 01 00:01:13
  TRACK 03 AUDIO
    TITLE "11:cjc040_2116"
    INDEX 01 00:01:66
  TRACK 04 AUDIO
    TITLE "0:"
    INDEX 01 00:02:71
  TRACK 05 AUDIO
    TITLE "10:cjc040_2117"
    INDEX 01 00:03:49
  TRACK 06 AUDIO
    TITLE "0:"
    INDEX 01 00:05:10
  TRACK 07 AUDIO
    TITLE "11:cjc040_2118"
    INDEX 01 00:05:65
  TRACK 08 AUDIO
    TITLE "0:"
    INDEX 01 00:08:30
  TRACK 09 AUDIO
    TITLE "10:cjc040_2119"
    INDEX 01 00:09:04
  TRACK 10 AUDIO
    TITLE "0:"
    INDEX 01 00:10:14
  TRACK 11 AUDIO
    TITLE "11:cjc040_2120"
    INDEX 01 00:10:70
  TRACK 12 AUDIO
    TITLE "0:"
    INDEX 01 00:14:56
  TRACK 13 AUDIO
    TITLE "10:cjc040_2121"
    INDEX 01 00:15:36
  TRACK 14 AUDIO
    TITLE "0:"
    INDEX 01 00:16:57
  TRACK 15 AUDIO
    TITLE "11:cjc040_2122"
    INDEX 01 00:17:31
  TRACK 16 AUDIO
    TITLE "0:"
    INDEX 01 00:18:35
  TRACK 17 AUDIO
    TITLE "10:cjc040_2123"
    INDEX 01 00:19:16
  TRACK 18 AUDIO
    TITLE "0:"
    INDEX 01 00:20:39
  TRACK 19 AUDIO
    TITLE "11:cjc040_2124"
    INDEX 01 00:21:17
  TRACK 20 AUDIO
    TITLE "0:"
    INDEX 01 00:25:13
  TRACK 21 AUDIO
    TITLE "10:cjc040_2125"
    INDEX 01 00:25:68
  TRACK 22 AUDIO
    TITLE "0:"
    INDEX 01 00:27:08
  TRACK 23 AUDIO
    TITLE "11:cjc040_2126"
    INDEX 01 00:27:65
  TRACK 24 AUDIO
    TITLE "0:"
    INDEX 01 00:28:68
  TRACK 25 AUDIO
    TITLE "10:cjc040_2127"
    INDEX 01 00:29:50
  TRACK 26 AUDIO
    TITLE "0:"
    INDEX 01 00:31:02
  TRACK 27 AUDIO
    TITLE "11:cjc040_2128"
    INDEX 01 00:31:57
  TRACK 28 AUDIO
    TITLE "0:"
    INDEX 01 00:33:64
  TRACK 29 AUDIO
    TITLE "10:cjc040_2129"
    INDEX 01 00:34:43
  TRACK 30 AUDIO
    TITLE "0:"
    INDEX 01 00:35:72
  TRACK 31 AUDIO
    TITLE "11:cjc040_2130"
    INDEX 01 00:36:54
  TRACK 32 AUDIO
    TITLE "0:"
    INDEX 01 00:38:26
  TRACK 33 AUDIO
    TITLE "10:cjc040_2131"
    INDEX 01 00:39:05
  TRACK 34 AUDIO
    TITLE "0:"
    INDEX 01 00:40:30
  TRACK 35 AUDIO
    TITLE "11:cjc040_2132"
    INDEX 01 00:41:14
  TRACK 36 AUDIO
    TITLE "0:"
    INDEX 01 00:42:21
  TRACK 37 AUDIO
    TITLE "10:cjc040_2133"
    INDEX 01 00:43:03
  TRACK 38 AUDIO
    TITLE "0:"
    INDEX 01 00:44:05
  TRACK 39 AUDIO
    TITLE "11:cjc040_2134"
    INDEX 01 00:44:56
  TRACK 40 AUDIO
    TITLE "0:"
    INDEX 01 00:45:61
  TRACK 41 AUDIO
    TITLE "10:cjc040_2135"
    INDEX 01 00:46:41
  TRACK 42 AUDIO
    TITLE "0:"
    INDEX 01 00:48:02
  TRACK 43 AUDIO
    TITLE "11:cjc040_2136"
    INDEX 01 00:48:59
  TRACK 44 AUDIO
    TITLE "0:"
    INDEX 01 00:52:32
  TRACK 45 AUDIO
    TITLE "10:cjc040_2137"
    INDEX 01 00:53:13
  TRACK 46 AUDIO
    TITLE "0:"
    INDEX 01 00:54:44
  TRACK 47 AUDIO
    TITLE "11:cjc040_2138"
    INDEX 01 00:55:24
  TRACK 48 AUDIO
    TITLE "0:"
    INDEX 01 00:56:41
  TRACK 49 AUDIO
    TITLE "10:cjc040_2139"
    INDEX 01 00:57:21
  TRACK 50 AUDIO
    TITLE "0:"
    INDEX 01 00:58:26
  TRACK 51 AUDIO
    TITLE "11:cjc040_2140"
    INDEX 01 00:59:06
  TRACK 52 AUDIO
    TITLE "0:"
    INDEX 01 01:02:05
  TRACK 53 AUDIO
    TITLE "10:cjc040_2141"
    INDEX 01 01:02:57
  TRACK 54 AUDIO
    TITLE "0:"
    INDEX 01 01:03:65
  TRACK 55 AUDIO
    TITLE "11:cjc040_2142"
    INDEX 01 01:04:39
  TRACK 56 AUDIO
    TITLE "0:"
    INDEX 01 01:08:19
  TRACK 57 AUDIO
    TITLE "10:cjc040_2143"
    INDEX 01 01:08:68
  TRACK 58 AUDIO
    TITLE "0:"
    INDEX 01 01:10:31
  TRACK 59 AUDIO
    TITLE "11:cjc040_2144"
    INDEX 01 01:11:09
  TRACK 60 AUDIO
    TITLE "0:"
    INDEX 01 01:13:53
  TRACK 61 AUDIO
    TITLE "10:cjc040_2145"
    INDEX 01 01:14:33
  TRACK 62 AUDIO
    TITLE "0:"
    INDEX 01 01:15:70
  TRACK 63 AUDIO
    TITLE "11:cjc040_2146"
    INDEX 01 01:16:58
  TRACK 64 AUDIO
    TITLE "0:"
    INDEX 01 01:18:62
  TRACK 65 AUDIO
    TITLE "10:cjc040_2147"
    INDEX 01 01:19:42
  TRACK 66 AUDIO
    TITLE "0:"
    INDEX 01 01:20:59
  TRACK 67 AUDIO
    TITLE "11:cjc040_2148"
    INDEX 01 01:21:43
  TRACK 68 AUDIO
    TITLE "0:"
    INDEX 01 01:22:70
  TRACK 69 AUDIO
    TITLE "10:cjc040_2149"
    INDEX 01 01:23:54
  TRACK 70 AUDIO
    TITLE "0:"
    INDEX 01 01:24:71
  TRACK 71 AUDIO
    TITLE "11:cjc040_2150"
    INDEX 01 01:25:51
  TRACK 72 AUDIO
    TITLE "0:"
    INDEX 01 01:28:04
